<svg width="326" height="55" viewBox="0 0 326 55" fill="none" xmlns="http://www.w3.org/2000/svg">
<rect x="1" y="1" width="324" height="53" rx="26.5" fill="white" stroke="black" stroke-width="2"/>
<path d="M54.6072 34.18C53.5032 34.18 52.5432 34 51.7272 33.64C50.9112 33.28 50.2752 32.74 49.8192 32.02C49.3632 31.288 49.1112 30.376 49.0632 29.284C49.0512 28.768 49.0452 28.252 49.0452 27.736C49.0452 27.22 49.0512 26.698 49.0632 26.17C49.1112 25.09 49.3632 24.184 49.8192 23.452C50.2872 22.708 50.9292 22.15 51.7452 21.778C52.5612 21.406 53.5152 21.22 54.6072 21.22C55.6872 21.22 56.6352 21.406 57.4512 21.778C58.2792 22.15 58.9272 22.708 59.3952 23.452C59.8632 24.184 60.1152 25.09 60.1512 26.17C60.1752 26.698 60.1872 27.22 60.1872 27.736C60.1872 28.252 60.1752 28.768 60.1512 29.284C60.1032 30.376 59.8512 31.288 59.3952 32.02C58.9392 32.74 58.3032 33.28 57.4872 33.64C56.6712 34 55.7112 34.18 54.6072 34.18ZM54.6072 31.588C55.2432 31.588 55.7592 31.396 56.1552 31.012C56.5632 30.628 56.7792 30.016 56.8032 29.176C56.8272 28.648 56.8392 28.15 56.8392 27.682C56.8392 27.214 56.8272 26.728 56.8032 26.224C56.7792 25.66 56.6712 25.204 56.4792 24.856C56.2992 24.496 56.0472 24.232 55.7232 24.064C55.3992 23.896 55.0272 23.812 54.6072 23.812C54.1992 23.812 53.8332 23.896 53.5092 24.064C53.1852 24.232 52.9272 24.496 52.7352 24.856C52.5432 25.204 52.4352 25.66 52.4112 26.224C52.3992 26.728 52.3932 27.214 52.3932 27.682C52.3932 28.15 52.3992 28.648 52.4112 29.176C52.4472 30.016 52.6632 30.628 53.0592 31.012C53.4552 31.396 53.9712 31.588 54.6072 31.588ZM64.9017 34C64.7817 34 64.6737 33.958 64.5777 33.874C64.4937 33.79 64.4517 33.682 64.4517 33.55V26.998H61.7157C61.5957 26.998 61.4877 26.956 61.3917 26.872C61.3077 26.788 61.2657 26.68 61.2657 26.548V25.09C61.2657 24.958 61.3077 24.85 61.3917 24.766C61.4877 24.682 61.5957 24.64 61.7157 24.64H70.1757C70.2957 24.64 70.3977 24.682 70.4817 24.766C70.5777 24.85 70.6257 24.958 70.6257 25.09V26.548C70.6257 26.68 70.5777 26.788 70.4817 26.872C70.3977 26.956 70.2957 26.998 70.1757 26.998H67.4397V33.55C67.4397 33.682 67.3977 33.79 67.3137 33.874C67.2297 33.958 67.1217 34 66.9897 34H64.9017ZM75.861 34.18C75.021 34.18 74.325 34.09 73.773 33.91C73.233 33.73 72.801 33.496 72.477 33.208C72.153 32.92 71.919 32.62 71.775 32.308C71.643 31.984 71.559 31.696 71.523 31.444C71.511 31.348 71.541 31.27 71.613 31.21C71.685 31.15 71.763 31.12 71.847 31.12H73.935C74.067 31.12 74.163 31.144 74.223 31.192C74.295 31.24 74.355 31.306 74.403 31.39C74.511 31.63 74.685 31.804 74.925 31.912C75.177 32.02 75.501 32.074 75.897 32.074C76.173 32.074 76.413 32.038 76.617 31.966C76.833 31.894 76.995 31.786 77.103 31.642C77.211 31.498 77.265 31.318 77.265 31.102C77.265 30.802 77.175 30.574 76.995 30.418C76.815 30.25 76.503 30.166 76.059 30.166H75.051C74.943 30.166 74.853 30.13 74.781 30.058C74.709 29.974 74.673 29.878 74.673 29.77V28.744C74.673 28.636 74.709 28.546 74.781 28.474C74.853 28.39 74.943 28.348 75.051 28.348H76.023C76.395 28.348 76.665 28.282 76.833 28.15C77.001 28.018 77.085 27.814 77.085 27.538C77.085 27.37 77.043 27.214 76.959 27.07C76.875 26.926 76.743 26.812 76.563 26.728C76.383 26.632 76.137 26.584 75.825 26.584C75.381 26.584 75.063 26.65 74.871 26.782C74.691 26.902 74.541 27.094 74.421 27.358C74.373 27.442 74.313 27.508 74.241 27.556C74.181 27.604 74.085 27.628 73.953 27.628H71.937C71.841 27.628 71.763 27.598 71.703 27.538C71.643 27.478 71.613 27.4 71.613 27.304C71.649 26.992 71.739 26.674 71.883 26.35C72.039 26.014 72.279 25.702 72.603 25.414C72.927 25.126 73.353 24.898 73.881 24.73C74.409 24.55 75.069 24.46 75.861 24.46C76.881 24.46 77.691 24.586 78.291 24.838C78.903 25.078 79.341 25.402 79.605 25.81C79.869 26.206 80.001 26.644 80.001 27.124C80.001 27.532 79.917 27.904 79.749 28.24C79.581 28.576 79.281 28.852 78.849 29.068C79.389 29.272 79.761 29.584 79.965 30.004C80.169 30.424 80.271 30.874 80.271 31.354C80.271 31.93 80.091 32.428 79.731 32.848C79.383 33.268 78.879 33.598 78.219 33.838C77.559 34.066 76.773 34.18 75.861 34.18ZM82.4241 34C82.2921 34 82.1841 33.958 82.1001 33.874C82.0161 33.79 81.9741 33.682 81.9741 33.55V25.09C81.9741 24.958 82.0161 24.85 82.1001 24.766C82.1841 24.682 82.2921 24.64 82.4241 24.64H84.5481C84.6801 24.64 84.7881 24.682 84.8721 24.766C84.9681 24.85 85.0161 24.958 85.0161 25.09V27.52H86.6541C87.8661 27.52 88.8021 27.814 89.4621 28.402C90.1221 28.978 90.4521 29.776 90.4521 30.796C90.4521 31.84 90.1041 32.638 89.4081 33.19C88.7241 33.73 87.7701 34 86.5461 34H82.4241ZM84.9441 31.93H86.3841C86.8521 31.93 87.1941 31.846 87.4101 31.678C87.6261 31.498 87.7341 31.204 87.7341 30.796C87.7341 30.388 87.6261 30.082 87.4101 29.878C87.2061 29.674 86.8641 29.572 86.3841 29.572H84.9441V31.93ZM92.0001 34C91.8801 34 91.7721 33.958 91.6761 33.874C91.5921 33.79 91.5501 33.682 91.5501 33.55V25.09C91.5501 24.958 91.5921 24.85 91.6761 24.766C91.7721 24.682 91.8801 24.64 92.0001 24.64H94.1421C94.2621 24.64 94.3641 24.682 94.4481 24.766C94.5441 24.85 94.5921 24.958 94.5921 25.09V33.55C94.5921 33.682 94.5441 33.79 94.4481 33.874C94.3641 33.958 94.2621 34 94.1421 34H92.0001ZM97.2425 34C97.1105 34 97.0025 33.958 96.9185 33.874C96.8345 33.79 96.7925 33.682 96.7925 33.55V25.09C96.7925 24.958 96.8345 24.85 96.9185 24.766C97.0025 24.682 97.1105 24.64 97.2425 24.64H101.454C102.882 24.64 103.92 24.88 104.568 25.36C105.228 25.84 105.558 26.488 105.558 27.304C105.558 27.76 105.468 28.132 105.288 28.42C105.108 28.708 104.868 28.948 104.568 29.14C104.964 29.344 105.276 29.626 105.504 29.986C105.732 30.346 105.846 30.76 105.846 31.228C105.846 32.092 105.51 32.77 104.838 33.262C104.166 33.754 103.122 34 101.706 34H97.2425ZM99.7085 32.074H101.544C101.916 32.074 102.216 32.008 102.444 31.876C102.672 31.732 102.786 31.504 102.786 31.192C102.786 30.88 102.678 30.658 102.462 30.526C102.258 30.382 101.952 30.31 101.544 30.31H99.7085V32.074ZM99.7085 28.294H101.508C101.88 28.294 102.174 28.222 102.39 28.078C102.618 27.922 102.732 27.694 102.732 27.394C102.732 27.082 102.618 26.866 102.39 26.746C102.174 26.626 101.88 26.566 101.508 26.566H99.7085V28.294ZM108.158 34C108.026 34 107.918 33.958 107.834 33.874C107.75 33.79 107.708 33.682 107.708 33.55V25.09C107.708 24.958 107.75 24.85 107.834 24.766C107.918 24.682 108.026 24.64 108.158 24.64H110.282C110.414 24.64 110.522 24.682 110.606 24.766C110.702 24.85 110.75 24.958 110.75 25.09V27.52H112.388C113.6 27.52 114.536 27.814 115.196 28.402C115.856 28.978 116.186 29.776 116.186 30.796C116.186 31.84 115.838 32.638 115.142 33.19C114.458 33.73 113.504 34 112.28 34H108.158ZM110.678 31.93H112.118C112.586 31.93 112.928 31.846 113.144 31.678C113.36 31.498 113.468 31.204 113.468 30.796C113.468 30.388 113.36 30.082 113.144 29.878C112.94 29.674 112.598 29.572 112.118 29.572H110.678V31.93ZM117.734 34C117.614 34 117.506 33.958 117.41 33.874C117.326 33.79 117.284 33.682 117.284 33.55V25.09C117.284 24.958 117.326 24.85 117.41 24.766C117.506 24.682 117.614 24.64 117.734 24.64H119.876C119.996 24.64 120.098 24.682 120.182 24.766C120.278 24.85 120.326 24.958 120.326 25.09V33.55C120.326 33.682 120.278 33.79 120.182 33.874C120.098 33.958 119.996 34 119.876 34H117.734ZM126.809 34C126.677 34 126.569 33.958 126.485 33.874C126.401 33.79 126.359 33.682 126.359 33.55V25.09C126.359 24.958 126.401 24.85 126.485 24.766C126.569 24.682 126.677 24.64 126.809 24.64H128.933C129.053 24.64 129.155 24.682 129.239 24.766C129.335 24.85 129.383 24.958 129.383 25.09V28.078H132.623V25.09C132.623 24.958 132.665 24.85 132.749 24.766C132.833 24.682 132.941 24.64 133.073 24.64H135.197C135.317 24.64 135.419 24.682 135.503 24.766C135.599 24.85 135.647 24.958 135.647 25.09V33.55C135.647 33.682 135.599 33.79 135.503 33.874C135.419 33.958 135.317 34 135.197 34H133.073C132.941 34 132.833 33.958 132.749 33.874C132.665 33.79 132.623 33.682 132.623 33.55V30.436H129.383V33.55C129.383 33.682 129.335 33.79 129.239 33.874C129.155 33.958 129.053 34 128.933 34H126.809ZM140.645 34.18C139.997 34.18 139.415 34.06 138.899 33.82C138.395 33.568 137.993 33.232 137.693 32.812C137.393 32.392 137.243 31.918 137.243 31.39C137.243 30.538 137.591 29.866 138.287 29.374C138.983 28.87 139.907 28.528 141.059 28.348L143.309 28.006V27.754C143.309 27.322 143.219 26.992 143.039 26.764C142.859 26.536 142.529 26.422 142.049 26.422C141.713 26.422 141.437 26.488 141.221 26.62C141.017 26.752 140.855 26.932 140.735 27.16C140.627 27.316 140.477 27.394 140.285 27.394H138.269C138.137 27.394 138.035 27.358 137.963 27.286C137.891 27.202 137.861 27.106 137.873 26.998C137.873 26.782 137.951 26.536 138.107 26.26C138.275 25.972 138.527 25.69 138.863 25.414C139.199 25.138 139.631 24.91 140.159 24.73C140.687 24.55 141.323 24.46 142.067 24.46C142.847 24.46 143.513 24.55 144.065 24.73C144.617 24.91 145.061 25.162 145.397 25.486C145.745 25.81 146.003 26.194 146.171 26.638C146.339 27.07 146.423 27.55 146.423 28.078V33.55C146.423 33.682 146.375 33.79 146.279 33.874C146.195 33.958 146.093 34 145.973 34H143.885C143.753 34 143.645 33.958 143.561 33.874C143.477 33.79 143.435 33.682 143.435 33.55V32.92C143.279 33.148 143.069 33.358 142.805 33.55C142.541 33.742 142.229 33.892 141.869 34C141.521 34.12 141.113 34.18 140.645 34.18ZM141.491 32.128C141.839 32.128 142.151 32.056 142.427 31.912C142.715 31.756 142.937 31.522 143.093 31.21C143.261 30.886 143.345 30.484 143.345 30.004V29.752L141.815 30.022C141.251 30.118 140.837 30.268 140.573 30.472C140.321 30.664 140.195 30.892 140.195 31.156C140.195 31.36 140.255 31.534 140.375 31.678C140.495 31.822 140.651 31.936 140.843 32.02C141.035 32.092 141.251 32.128 141.491 32.128ZM148.905 34C148.773 34 148.665 33.958 148.581 33.874C148.497 33.79 148.455 33.682 148.455 33.55V25.09C148.455 24.958 148.497 24.85 148.581 24.766C148.665 24.682 148.773 24.64 148.905 24.64H150.921C151.041 24.64 151.143 24.682 151.227 24.766C151.323 24.85 151.371 24.958 151.371 25.09V31.642H153.459V25.09C153.459 24.958 153.501 24.85 153.585 24.766C153.669 24.682 153.777 24.64 153.909 24.64H155.745C155.877 24.64 155.985 24.682 156.069 24.766C156.153 24.85 156.195 24.958 156.195 25.09V31.642H158.283V25.09C158.283 24.958 158.325 24.85 158.409 24.766C158.505 24.682 158.613 24.64 158.733 24.64H160.749C160.881 24.64 160.989 24.682 161.073 24.766C161.157 24.85 161.199 24.958 161.199 25.09V33.55C161.199 33.682 161.157 33.79 161.073 33.874C160.989 33.958 160.881 34 160.749 34H148.905ZM163.828 34C163.708 34 163.606 33.958 163.522 33.874C163.438 33.79 163.396 33.688 163.396 33.568V25.09C163.396 24.958 163.438 24.85 163.522 24.766C163.606 24.682 163.714 24.64 163.846 24.64H165.97C166.09 24.64 166.192 24.682 166.276 24.766C166.372 24.85 166.42 24.958 166.42 25.09V31.66L165.61 31.264L170.056 24.928C170.116 24.844 170.188 24.778 170.272 24.73C170.356 24.67 170.452 24.64 170.56 24.64H172.486C172.606 24.64 172.708 24.682 172.792 24.766C172.876 24.85 172.918 24.952 172.918 25.072V33.55C172.918 33.682 172.876 33.79 172.792 33.874C172.708 33.958 172.6 34 172.468 34H170.344C170.212 34 170.104 33.958 170.02 33.874C169.936 33.79 169.894 33.682 169.894 33.55V27.178L170.722 27.34L166.24 33.712C166.192 33.796 166.126 33.868 166.042 33.928C165.958 33.976 165.856 34 165.736 34H163.828ZM174.497 34C174.389 34 174.293 33.964 174.209 33.892C174.137 33.808 174.101 33.712 174.101 33.604C174.101 33.568 174.107 33.526 174.119 33.478C174.131 33.418 174.155 33.364 174.191 33.316L177.197 29.194L174.461 25.324C174.425 25.276 174.395 25.228 174.371 25.18C174.359 25.132 174.353 25.084 174.353 25.036C174.353 24.928 174.395 24.838 174.479 24.766C174.563 24.682 174.659 24.64 174.767 24.64H176.963C177.119 24.64 177.233 24.676 177.305 24.748C177.389 24.82 177.449 24.886 177.485 24.946L179.159 27.268L180.815 24.964C180.863 24.904 180.923 24.838 180.995 24.766C181.079 24.682 181.199 24.64 181.355 24.64H183.461C183.569 24.64 183.659 24.682 183.73 24.766C183.815 24.838 183.857 24.928 183.857 25.036C183.857 25.084 183.851 25.132 183.839 25.18C183.827 25.228 183.803 25.276 183.767 25.324L180.959 29.194L184.001 33.316C184.049 33.364 184.079 33.412 184.091 33.46C184.103 33.508 184.109 33.556 184.109 33.604C184.109 33.712 184.067 33.808 183.982 33.892C183.911 33.964 183.815 34 183.695 34H181.409C181.265 34 181.157 33.97 181.085 33.91C181.013 33.838 180.953 33.772 180.905 33.712L179.087 31.246L177.251 33.712C177.203 33.76 177.143 33.82 177.071 33.892C176.999 33.964 176.885 34 176.729 34H174.497ZM189.739 34C189.607 34 189.499 33.958 189.415 33.874C189.331 33.79 189.289 33.682 189.289 33.55V25.09C189.289 24.958 189.331 24.85 189.415 24.766C189.499 24.682 189.607 24.64 189.739 24.64H191.809C191.941 24.64 192.049 24.682 192.133 24.766C192.217 24.85 192.259 24.958 192.259 25.09V28.078H193.231L195.193 24.928C195.229 24.868 195.289 24.808 195.373 24.748C195.457 24.676 195.565 24.64 195.697 24.64H198.001C198.109 24.64 198.199 24.676 198.271 24.748C198.355 24.808 198.397 24.892 198.397 25C198.397 25.036 198.385 25.078 198.361 25.126C198.349 25.174 198.331 25.216 198.307 25.252L195.841 29.176L198.721 33.406C198.769 33.478 198.793 33.556 198.793 33.64C198.793 33.748 198.757 33.838 198.685 33.91C198.613 33.97 198.517 34 198.397 34H195.859C195.727 34 195.619 33.976 195.535 33.928C195.463 33.868 195.397 33.796 195.337 33.712L193.195 30.436H192.259V33.55C192.259 33.682 192.217 33.79 192.133 33.874C192.049 33.958 191.941 34 191.809 34H189.739ZM200.043 34C199.923 34 199.815 33.958 199.719 33.874C199.635 33.778 199.593 33.67 199.593 33.55V31.966C199.593 31.702 199.737 31.552 200.025 31.516C200.373 31.48 200.637 31.318 200.817 31.03C200.997 30.742 201.123 30.316 201.195 29.752C201.267 29.188 201.303 28.48 201.303 27.628V25.09C201.303 24.958 201.345 24.85 201.429 24.766C201.525 24.682 201.633 24.64 201.753 24.64H208.809C208.941 24.64 209.049 24.682 209.133 24.766C209.217 24.85 209.259 24.958 209.259 25.09V33.55C209.259 33.682 209.217 33.79 209.133 33.874C209.049 33.958 208.941 34 208.809 34H206.685C206.565 34 206.457 33.958 206.361 33.874C206.277 33.79 206.235 33.682 206.235 33.55V26.998H204.183V27.952C204.183 29.104 204.123 30.07 204.003 30.85C203.883 31.63 203.667 32.248 203.355 32.704C203.043 33.16 202.617 33.49 202.077 33.694C201.537 33.898 200.859 34 200.043 34ZM211.887 34C211.767 34 211.665 33.958 211.581 33.874C211.497 33.79 211.455 33.688 211.455 33.568V25.09C211.455 24.958 211.497 24.85 211.581 24.766C211.665 24.682 211.773 24.64 211.905 24.64H214.029C214.149 24.64 214.251 24.682 214.335 24.766C214.431 24.85 214.479 24.958 214.479 25.09V31.66L213.669 31.264L218.115 24.928C218.175 24.844 218.247 24.778 218.331 24.73C218.415 24.67 218.511 24.64 218.619 24.64H220.545C220.665 24.64 220.767 24.682 220.851 24.766C220.935 24.85 220.977 24.952 220.977 25.072V33.55C220.977 33.682 220.935 33.79 220.851 33.874C220.767 33.958 220.659 34 220.527 34H218.403C218.271 34 218.163 33.958 218.079 33.874C217.995 33.79 217.953 33.682 217.953 33.55V27.178L218.781 27.34L214.299 33.712C214.251 33.796 214.185 33.868 214.101 33.928C214.017 33.976 213.915 34 213.795 34H211.887ZM227.253 34.18C225.837 34.18 224.709 33.796 223.869 33.028C223.029 32.26 222.591 31.12 222.555 29.608C222.555 29.524 222.555 29.416 222.555 29.284C222.555 29.152 222.555 29.05 222.555 28.978C222.591 28.03 222.801 27.22 223.185 26.548C223.581 25.864 224.121 25.348 224.805 25C225.501 24.64 226.311 24.46 227.235 24.46C228.291 24.46 229.161 24.67 229.845 25.09C230.541 25.51 231.063 26.08 231.411 26.8C231.759 27.52 231.933 28.342 231.933 29.266V29.698C231.933 29.83 231.885 29.938 231.789 30.022C231.705 30.106 231.603 30.148 231.483 30.148H225.723C225.723 30.16 225.723 30.178 225.723 30.202C225.723 30.226 225.723 30.25 225.723 30.274C225.735 30.622 225.795 30.94 225.903 31.228C226.011 31.516 226.179 31.744 226.407 31.912C226.635 32.08 226.911 32.164 227.235 32.164C227.475 32.164 227.673 32.128 227.829 32.056C227.997 31.972 228.135 31.882 228.243 31.786C228.351 31.678 228.435 31.588 228.495 31.516C228.603 31.396 228.687 31.324 228.747 31.3C228.819 31.264 228.927 31.246 229.071 31.246H231.303C231.423 31.246 231.519 31.282 231.591 31.354C231.675 31.414 231.711 31.504 231.699 31.624C231.687 31.828 231.585 32.074 231.393 32.362C231.201 32.65 230.919 32.938 230.547 33.226C230.187 33.502 229.731 33.73 229.179 33.91C228.627 34.09 227.985 34.18 227.253 34.18ZM225.723 28.366H228.765V28.33C228.765 27.946 228.705 27.61 228.585 27.322C228.477 27.034 228.303 26.812 228.063 26.656C227.835 26.5 227.559 26.422 227.235 26.422C226.911 26.422 226.635 26.5 226.407 26.656C226.191 26.812 226.023 27.034 225.903 27.322C225.783 27.61 225.723 27.946 225.723 28.33V28.366ZM234.071 34C233.939 34 233.831 33.958 233.747 33.874C233.663 33.79 233.621 33.682 233.621 33.55V25.09C233.621 24.958 233.663 24.85 233.747 24.766C233.831 24.682 233.939 24.64 234.071 24.64H236.195C236.315 24.64 236.417 24.682 236.501 24.766C236.597 24.85 236.645 24.958 236.645 25.09V28.078H239.885V25.09C239.885 24.958 239.927 24.85 240.011 24.766C240.095 24.682 240.203 24.64 240.335 24.64H242.459C242.579 24.64 242.681 24.682 242.765 24.766C242.861 24.85 242.909 24.958 242.909 25.09V33.55C242.909 33.682 242.861 33.79 242.765 33.874C242.681 33.958 242.579 34 242.459 34H240.335C240.203 34 240.095 33.958 240.011 33.874C239.927 33.79 239.885 33.682 239.885 33.55V30.436H236.645V33.55C236.645 33.682 236.597 33.79 236.501 33.874C236.417 33.958 236.315 34 236.195 34H234.071ZM247.925 34C247.805 34 247.697 33.958 247.601 33.874C247.517 33.79 247.475 33.682 247.475 33.55V26.998H244.739C244.619 26.998 244.511 26.956 244.415 26.872C244.331 26.788 244.289 26.68 244.289 26.548V25.09C244.289 24.958 244.331 24.85 244.415 24.766C244.511 24.682 244.619 24.64 244.739 24.64H253.199C253.319 24.64 253.421 24.682 253.505 24.766C253.601 24.85 253.649 24.958 253.649 25.09V26.548C253.649 26.68 253.601 26.788 253.505 26.872C253.421 26.956 253.319 26.998 253.199 26.998H250.463V33.55C250.463 33.682 250.421 33.79 250.337 33.874C250.253 33.958 250.145 34 250.013 34H247.925ZM259.388 34.18C258.38 34.18 257.528 34.018 256.832 33.694C256.148 33.37 255.62 32.908 255.248 32.308C254.888 31.696 254.684 30.97 254.636 30.13C254.624 29.89 254.618 29.62 254.618 29.32C254.618 29.008 254.624 28.738 254.636 28.51C254.684 27.658 254.9 26.932 255.284 26.332C255.668 25.732 256.202 25.27 256.886 24.946C257.582 24.622 258.416 24.46 259.388 24.46C260.372 24.46 261.206 24.622 261.89 24.946C262.586 25.27 263.126 25.732 263.51 26.332C263.894 26.932 264.11 27.658 264.158 28.51C264.17 28.738 264.176 29.008 264.176 29.32C264.176 29.62 264.17 29.89 264.158 30.13C264.11 30.97 263.9 31.696 263.528 32.308C263.168 32.908 262.64 33.37 261.944 33.694C261.26 34.018 260.408 34.18 259.388 34.18ZM259.388 31.984C259.928 31.984 260.318 31.822 260.558 31.498C260.81 31.174 260.954 30.688 260.99 30.04C261.002 29.86 261.008 29.62 261.008 29.32C261.008 29.02 261.002 28.78 260.99 28.6C260.954 27.964 260.81 27.484 260.558 27.16C260.318 26.824 259.928 26.656 259.388 26.656C258.86 26.656 258.47 26.824 258.218 27.16C257.966 27.484 257.828 27.964 257.804 28.6C257.792 28.78 257.786 29.02 257.786 29.32C257.786 29.62 257.792 29.86 257.804 30.04C257.828 30.688 257.966 31.174 258.218 31.498C258.47 31.822 258.86 31.984 259.388 31.984ZM266.397 34C266.265 34 266.157 33.958 266.073 33.874C265.989 33.79 265.947 33.682 265.947 33.55V25.09C265.947 24.958 265.989 24.85 266.073 24.766C266.157 24.682 266.265 24.64 266.397 24.64H270.609C272.037 24.64 273.075 24.88 273.723 25.36C274.383 25.84 274.713 26.488 274.713 27.304C274.713 27.76 274.623 28.132 274.443 28.42C274.263 28.708 274.023 28.948 273.723 29.14C274.119 29.344 274.431 29.626 274.659 29.986C274.887 30.346 275.001 30.76 275.001 31.228C275.001 32.092 274.665 32.77 273.993 33.262C273.321 33.754 272.277 34 270.861 34H266.397ZM268.863 32.074H270.699C271.071 32.074 271.371 32.008 271.599 31.876C271.827 31.732 271.941 31.504 271.941 31.192C271.941 30.88 271.833 30.658 271.617 30.526C271.413 30.382 271.107 30.31 270.699 30.31H268.863V32.074ZM268.863 28.294H270.663C271.035 28.294 271.329 28.222 271.545 28.078C271.773 27.922 271.887 27.694 271.887 27.394C271.887 27.082 271.773 26.866 271.545 26.746C271.329 26.626 271.035 26.566 270.663 26.566H268.863V28.294Z" fill="#1F1111"/>
</svg>
