<svg width="173" height="146" viewBox="0 0 173 146" fill="none" xmlns="http://www.w3.org/2000/svg">
<g opacity="0.8">
<line x1="39.5" y1="136.5" x2="88.5" y2="136.5" stroke="#1F1111" stroke-linecap="round" stroke-dasharray="2 2"/>
<line x1="39.5" y1="136.5" x2="120.5" y2="136.5" stroke="#1F1111" stroke-linecap="round" stroke-dasharray="2 2"/>
<line x1="45.5" y1="139.5" x2="116.5" y2="139.5" stroke="#1F1111" stroke-linecap="round" stroke-dasharray="2 2"/>
<path d="M78.5259 82.0685L80.3904 55.5936L82.6277 52.9834V85.4245H77.7802V83.1872C77.7802 82.2923 78.2773 82.0685 78.5259 82.0685Z" stroke="#1F1111" stroke-linecap="round" stroke-linejoin="round"/>
<path d="M79.6447 85.4248L80.3904 55.9668" stroke="#1F1111" stroke-linecap="round" stroke-linejoin="round"/>
<path d="M82.6277 30.2373V38.0679L80.3904 37.695H79.2717C79.1474 36.5764 78.8988 34.0407 78.8988 32.8475C78.8988 31.6543 78.4017 30.6102 78.1531 30.2373H82.6277Z" stroke="#1F1111" stroke-linecap="round" stroke-linejoin="round"/>
<path d="M78.1531 30.2375C77.5565 29.9391 77.6559 31.6047 77.7802 32.4748L78.526 40.3054L79.2718 40.6783V35.085C79.2718 33.5934 78.8989 30.6103 78.1531 30.2375Z" stroke="#1F1111" stroke-linecap="round" stroke-linejoin="round"/>
<path d="M81.1361 6.74577L85.5042 6H89.4461L93.8142 6.74577" stroke="#1F1111" stroke-linecap="round" stroke-linejoin="round"/>
<path d="M84.865 15.3221V8.61019L85.9836 8.2373H89.7125L90.8312 8.61019V15.3221" stroke="#1F1111" stroke-linecap="round" stroke-linejoin="round"/>
<path d="M93.8142 14.9496V6.74609L90.8312 8.30867M81.1361 14.9496V6.74609L84.4079 8.30867" stroke="#1F1111" stroke-linecap="round" stroke-linejoin="round"/>
<path d="M129.984 118.611H127.001L125.137 121.967" stroke="#1F1111" stroke-linecap="round" stroke-linejoin="round"/>
<path d="M113.95 56.7125L103.136 44.4072" stroke="#1F1111" stroke-linecap="round" stroke-linejoin="round"/>
<path d="M130.357 44.7796L131.849 42.9152C131.103 41.5479 129.705 39.5969 127.747 38.8136C124.95 37.695 122.526 37.6949 120.289 38.8135C117.306 40.3051 116.063 43.2882 115.442 44.034" stroke="#1F1111" stroke-linecap="round" stroke-linejoin="round"/>
<line x1="134.468" y1="88.1739" x2="134.971" y2="86.161" stroke="#1F1111" stroke-linecap="round" stroke-linejoin="round"/>
<path d="M87.4752 29.8645C90.9761 29.8645 93.8142 28.451 93.8142 27.6272V14.5762C92.9442 14.9491 91.204 16.0677 88.221 16.0677C84.865 16.0677 82.5034 15.1976 81.1361 14.9491V27.6272C81.1361 28.451 83.9742 29.8645 87.4752 29.8645Z" stroke="#1F1111" stroke-linecap="round" stroke-linejoin="round"/>
<ellipse cx="87.4753" cy="20.9156" rx="2.6102" ry="2.98309" transform="rotate(15.8192 87.4753 20.9156)" stroke="#1F1111" stroke-linecap="round" stroke-linejoin="round"/>
<path d="M87.8482 17.9326C87.8482 20.4039 86.8465 22.4073 85.6108 22.4073" stroke="#1F1111" stroke-linecap="round" stroke-linejoin="round"/>
<line x1="78.7594" y1="82.4331" x2="79.2626" y2="84.4461" stroke="#1F1111" stroke-linecap="round" stroke-linejoin="round"/>
<path d="M51.3052 125.122C59.0281 131.998 72.013 136.51 86.7294 136.51C105.704 136.51 122.899 129.052 127.374 117.866C127.374 114.51 127.296 107.884 127.374 105.188" stroke="#1F1111" stroke-linecap="round" stroke-linejoin="round"/>
<path d="M50.5594 113.258C57.2841 119.536 70.9662 123.833 86.7509 123.833C109.186 123.833 127.374 115.152 127.374 104.443C127.374 94.5747 111.93 86.4283 91.9498 85.21M58.6841 90.4249C65.0452 87.5223 73.3786 85.5964 82.6277 85.1514" stroke="#1F1111" stroke-linecap="round" stroke-linejoin="round"/>
<path d="M58.39 92.5097L61.0361 90.7566C66.79 88.129 74.2936 86.3684 82.6276 85.9141M51.3052 108.917L53.5425 111.834C59.7449 117.628 72.3642 121.595 86.923 121.595C107.616 121.595 124.391 113.581 124.391 103.696C124.391 94.6871 110.457 87.2326 92.3227 85.9822" stroke="#1F1111" stroke-linecap="round" stroke-linejoin="round"/>
<path d="M122.154 98.1025C127.747 109.289 105.771 119.357 89.3397 119.357C70.6953 119.357 56.8985 114.882 52.051 105.187" stroke="#1F1111" stroke-linecap="round" stroke-linejoin="round"/>
<path d="M121.408 96.9844C127.001 108.171 105.025 118.239 88.5939 118.239C69.9496 118.239 57.2715 112.646 52.424 102.951" stroke="#1F1111" stroke-linecap="round" stroke-linejoin="round"/>
<path d="M92.3228 86.7536C106.309 87.8954 116.933 93.5438 116.933 100.34C116.933 107.96 103.578 114.137 87.1024 114.137C70.6272 114.137 57.2715 107.96 57.2715 100.34C57.2715 93.4235 68.2753 87.6958 82.6278 86.6973" stroke="#1F1111" stroke-linecap="round" stroke-linejoin="round"/>
<path d="M116.933 101.459C116.933 109.285 103.578 115.629 87.1024 115.629C70.6272 115.629 57.2715 109.285 57.2715 101.459" stroke="#1F1111" stroke-linecap="round" stroke-linejoin="round"/>
<line x1="35.5" y1="133.5" x2="44.5" y2="133.5" stroke="#1F1111" stroke-linecap="round" stroke-dasharray="2 2"/>
<line x1="30.5" y1="130.5" x2="42.5" y2="130.5" stroke="#1F1111" stroke-linecap="round" stroke-dasharray="2 2"/>
<line x1="116.5" y1="130.5" x2="129.5" y2="130.5" stroke="#1F1111" stroke-linecap="round" stroke-dasharray="2 2"/>
<line x1="120.5" y1="127.5" x2="131.5" y2="127.5" stroke="#1F1111" stroke-linecap="round" stroke-dasharray="2 2"/>
<line x1="27.5" y1="127.5" x2="41.5" y2="127.5" stroke="#1F1111" stroke-linecap="round" stroke-dasharray="2 2"/>
<line x1="24.5" y1="124.5" x2="39.5" y2="124.5" stroke="#1F1111" stroke-linecap="round" stroke-dasharray="2 2"/>
<line x1="57.5" y1="133.5" x2="69.5" y2="133.5" stroke="#1F1111" stroke-linecap="round" stroke-dasharray="2 2"/>
<line x1="108.5" y1="133.5" x2="124.5" y2="133.5" stroke="#1F1111" stroke-linecap="round" stroke-dasharray="2 2"/>
<line x1="22.5" y1="121.5" x2="38.5" y2="121.5" stroke="#1F1111" stroke-linecap="round" stroke-dasharray="2 2"/>
<line x1="21.5" y1="118.5" x2="38.5" y2="118.5" stroke="#1F1111" stroke-linecap="round" stroke-dasharray="2 2"/>
<line x1="21.5" y1="115.5" x2="38.5" y2="115.5" stroke="#1F1111" stroke-linecap="round" stroke-dasharray="2 2"/>
<line x1="22.5" y1="112.5" x2="38.5" y2="112.5" stroke="#1F1111" stroke-linecap="round" stroke-dasharray="2 2"/>
<line x1="23.5" y1="109.5" x2="39.5" y2="109.5" stroke="#1F1111" stroke-linecap="round" stroke-dasharray="2 2"/>
<line x1="25.5" y1="106.5" x2="38.5" y2="106.5" stroke="#1F1111" stroke-linecap="round" stroke-dasharray="2 2"/>
<line x1="28.5" y1="103.5" x2="39.5" y2="103.5" stroke="#1F1111" stroke-linecap="round" stroke-dasharray="2 2"/>
<line x1="69.5" y1="106.5" x2="83.5" y2="106.5" stroke="#1F1111" stroke-linecap="round" stroke-dasharray="2 2"/>
<line x1="74.5" y1="109.5" x2="83.5" y2="109.5" stroke="#1F1111" stroke-linecap="round" stroke-dasharray="2 2"/>
<line x1="92.5" y1="109.5" x2="98.5" y2="109.5" stroke="#1F1111" stroke-linecap="round" stroke-dasharray="2 2"/>
<line x1="92.5" y1="106.5" x2="106.5" y2="106.5" stroke="#1F1111" stroke-linecap="round" stroke-dasharray="2 2"/>
<line x1="73.5" y1="103.5" x2="83.5" y2="103.5" stroke="#1F1111" stroke-linecap="round" stroke-dasharray="2 2"/>
<line x1="91.5" y1="103.5" x2="101.5" y2="103.5" stroke="#1F1111" stroke-linecap="round" stroke-dasharray="2 2"/>
<path d="M124.018 45.1533V49.628C123.77 49.7523 123.272 50.2992 123.272 51.4924C123.272 52.9839 124.064 63.4427 126.255 69.3909C128.866 76.4758 133.713 84.6793 135.205 85.7979C136.696 86.9166 139.306 95.8659 139.306 98.849C139.306 101.235 139.306 108.171 138.188 113.392" stroke="#1F1111" stroke-linecap="round" stroke-linejoin="round"/>
<path d="M118.798 81.6959L122.154 86.5434M124.018 89.1536C125.883 92.261 129.761 99.2961 130.357 102.578C130.954 105.859 131.103 109.414 131.103 110.781C131.103 114.982 130.357 118.611 128.866 121.968H125.137L124.018 124.205C124.888 125.199 127.076 127.188 128.866 127.188C131.103 127.188 131.476 127.561 133.34 125.324C135.205 123.086 137.815 114.883 138.188 112.645C138.561 110.408 139.306 105.561 138.188 99.9673C137.293 95.4927 135.578 90.3966 134.832 88.4078C133.589 87.2892 132.595 86.5434 131.103 84.3061C130.357 83.1874 127.766 78.5744 125.883 73.8653C123.645 68.2717 122.154 60.4414 122.154 54.8481C122.154 50.3734 122.527 46.7685 122.899 45.5256L130.357 44.7801C129.86 43.4129 127.3 40.2308 124.018 39.9325C119.916 39.5596 117.679 40.6781 115.815 43.6612C114.323 46.0477 114.199 55.9667 113.95 61.1871" stroke="#1F1111" stroke-linecap="round" stroke-linejoin="round"/>
<path d="M100.153 45.5254L124.391 74.2376M94.5601 51.8645L115.069 75.7292M61.0003 85.0513L58.3901 89.8989" stroke="#1F1111" stroke-linecap="round" stroke-linejoin="round"/>
<path d="M64.3562 65.2885C64.3562 63.1755 64.2816 58.8748 63.9833 57.085C63.685 55.2951 63.3619 54.8477 63.2376 54.8477H56.1527C56.1527 58.5765 56.1527 62.6783 56.1527 64.1698C56.1527 67.8987 55.407 75.3564 53.1696 80.5768C51.3798 84.7531 47.5763 91.3905 45.7119 95.4923C44.5932 98.1025 42.7288 104.814 42.3559 108.916C41.9508 113.372 42.6045 118.238 42.7288 120.103C42.7288 120.476 42.878 121.296 43.4746 121.594M43.4746 121.594C44.0712 121.893 48.695 120.476 50.9323 119.73M43.4746 121.594C43.7232 122.837 44.5187 126.144 45.7119 129.425C47.2035 133.527 49.0679 136.51 49.8137 136.883" stroke="#1F1111" stroke-linecap="round" stroke-linejoin="round"/>
<path d="M51.6781 48.8818L52.4239 52.6107C53.0453 53.2322 54.2137 55.3701 53.9154 58.9498C53.5425 63.4244 51.6781 76.1025 50.5594 78.3399C49.6645 80.1297 45.4633 89.5264 43.4746 94.0011C42.6045 96.2384 40.7152 101.906 40.1186 106.679C39.522 111.452 39.87 116.871 40.1186 118.984L39 117.866C39.87 120.973 41.983 127.785 43.4746 130.171C45.1545 132.859 48.2887 137.824 52.051 136.883C54.4375 136.286 57.52 132.16 58.763 130.171C58.1415 129.922 56.5257 129.798 55.0341 130.171C53.4756 130.561 52.9211 130.917 52.7968 130.917C52.2996 129.177 51.2307 125.174 50.9324 123.086C50.6341 120.998 50.8081 119.979 50.9324 119.73C50.6838 119.482 50.1866 118.835 50.1866 118.239C50.1866 117.493 50.5595 107.425 52.7968 101.832C54.5866 97.3571 55.5313 95.4926 55.7799 95.1197" stroke="#1F1111" stroke-linecap="round" stroke-linejoin="round"/>
<path d="M56.5257 54.1013H64.3563C63.8591 50.2482 61.7461 42.4673 57.2715 42.169C52.7968 41.8707 49.6894 46.5193 48.6951 48.8809H55.7799L56.5257 54.1013Z" stroke="#1F1111" stroke-linecap="round" stroke-linejoin="round"/>
<path d="M56.8985 42.1694L51.3052 41.0508C50.0623 41.4237 48.695 41.4237 46.8306 43.2881C45.6006 44.5181 44.8419 46.3955 44.5933 46.6441L48.695 48.8814" stroke="#1F1111" stroke-linecap="round" stroke-linejoin="round"/>
<path d="M48.3221 75.729L52.051 72.373L51.3052 74.6104C51.0566 74.6104 50.4103 74.9833 49.8137 76.4748C49.2171 77.9663 49.5651 80.0794 49.8137 80.9494L49.0679 82.0681L48.3221 81.6952V75.729Z" stroke="#1F1111" stroke-linecap="round" stroke-linejoin="round"/>
<path d="M71.4411 45.5254L63.9834 56.3391" stroke="#1F1111" stroke-linecap="round" stroke-linejoin="round"/>
<path d="M76.6615 47.3896L55.407 77.9663M82.2548 52.6101L64.3563 79.4579" stroke="#1F1111" stroke-linecap="round" stroke-linejoin="round"/>
<path d="M78.153 41.0503L75.5428 39.9316L72.9326 42.5418" stroke="#1F1111" stroke-linecap="round" stroke-linejoin="round"/>
<path d="M70.3224 46.6434V42.9146L74.0513 39.5586L75.5428 39.9315" stroke="#1F1111" stroke-linecap="round" stroke-linejoin="round"/>
<path d="M79.6446 43.6617C79.396 43.6617 78.0039 43.7363 77.4073 44.0346C76.8106 44.3329 76.6615 45.1533 76.6615 45.5262V47.0177L74.4242 50.0008L71.814 49.255C71.814 48.1364 71.814 45.6007 71.814 44.4075C71.814 43.2143 72.5597 42.6674 72.9326 42.5431L80.7632 40.6786L81.509 38.4412H82.7675C82.6277 39.187 82.2548 39.9329 82.7675 41.0515C83.6037 42.876 87.8481 42.7126 89.7125 42.5431C90.4583 42.4753 92.6956 41.4244 92.3227 39.5601C92.2191 39.042 92.3227 38.8141 91.9498 38.0684C93.0685 38.4413 93.4414 38.8141 93.4414 38.8141C93.4414 38.8141 94.3825 39.6133 95.3058 40.3057L96.0516 40.6786H101.272C101.769 40.6786 102.764 41.0515 102.764 42.5431C102.764 44.0346 102.764 46.3962 102.764 47.3906L102.391 47.7635L100.526 45.5262C100.651 44.6561 100.75 42.916 100.153 42.916C99.5567 42.916 99.5008 43.9103 99.5474 44.4075V45.5262" stroke="#1F1111" stroke-linecap="round" stroke-linejoin="round"/>
<path d="M85.2379 43.2878L83.0006 42.542H80.3904L77.0344 47.0166L78.1531 52.237H79.2717" stroke="#1F1111" stroke-linecap="round" stroke-linejoin="round"/>
<path d="M91.577 42.5426L93.8143 41.7969H96.4245L99.7805 46.2715L98.6619 51.4919H96.7974" stroke="#1F1111" stroke-linecap="round" stroke-linejoin="round"/>
<path d="M81.1362 43.2881L85.2379 43.661L85.9837 48.8814L83.3735 52.6102L79.2717 52.2374L78.1531 47.3898L81.1362 43.2881Z" stroke="#1F1111" stroke-linecap="round" stroke-linejoin="round"/>
<path d="M61.0003 76.1021L64.3563 78.3397L63.6105 83.5601L59.1359 86.1703L55.5561 83.7763L56.2349 78.8479L61.0003 76.1021Z" stroke="#1F1111" stroke-linecap="round" stroke-linejoin="round"/>
<path d="M117.964 72.1187L114.608 74.3563L115.353 79.5767L119.828 82.1869L123.408 79.7929L122.729 74.8646L117.964 72.1187Z" stroke="#1F1111" stroke-linecap="round" stroke-linejoin="round"/>
<path d="M63.2377 77.5938L59.8817 75.3565L55.4071 77.9669L54.2885 83.1872L58.0173 85.4245" stroke="#1F1111" stroke-linecap="round" stroke-linejoin="round"/>
<path d="M115.766 73.5439L119.117 71.293L123.615 73.9645L124.764 79.2648L121.039 81.5137" stroke="#1F1111" stroke-linecap="round" stroke-linejoin="round"/>
<path d="M94.9329 42.542L90.8312 42.9149L90.0854 48.1353L92.6956 51.8642L96.7974 51.4913L97.916 46.6437L94.9329 42.542Z" stroke="#1F1111" stroke-linecap="round" stroke-linejoin="round"/>
<path d="M83.3735 90.4307C72.3548 91.293 63.9834 95.5684 63.9834 100.713C63.9834 106.479 74.5011 111.154 87.4752 111.154C100.449 111.154 110.967 106.479 110.967 100.713C110.967 95.5684 102.596 91.293 91.577 90.4307" stroke="#1F1111" stroke-linecap="round" stroke-linejoin="round"/>
<path d="M106.305 106.306C103.19 103.393 97.7282 101.291 90.8312 100.815M84.1192 100.713C77.2222 101.189 71.7602 103.393 68.6455 106.306" stroke="#1F1111" stroke-linecap="round" stroke-linejoin="round"/>
<path d="M90.8312 100.713V108.677C90.8312 109.633 89.3287 110.408 87.4752 110.408C85.6218 110.408 84.1193 109.633 84.1193 108.677V100.713" stroke="#1F1111" stroke-linecap="round" stroke-linejoin="round"/>
<path d="M91.577 99.2207C91.577 100.044 89.7406 100.712 87.4753 100.712C85.21 100.712 83.3735 100.044 83.3735 99.2207" stroke="#1F1111" stroke-linecap="round" stroke-linejoin="round"/>
<path d="M91.577 88.7803C91.577 89.604 89.7406 90.2718 87.4753 90.2718C85.21 90.2718 83.3735 89.604 83.3735 88.7803" stroke="#1F1111" stroke-linecap="round" stroke-linejoin="round"/>
<path d="M91.577 78.3398C91.577 79.1636 89.7406 79.8314 87.4753 79.8314C85.21 79.8314 83.3735 79.1636 83.3735 78.3398" stroke="#1F1111" stroke-linecap="round" stroke-linejoin="round"/>
<path d="M91.577 67.8984C91.577 68.7222 89.7406 69.39 87.4753 69.39C85.21 69.39 83.3735 68.7222 83.3735 67.8984" stroke="#1F1111" stroke-linecap="round" stroke-linejoin="round"/>
<path d="M91.577 57.458C91.577 58.2818 89.7406 58.9496 87.4753 58.9496C85.21 58.9496 83.3735 58.2818 83.3735 57.458" stroke="#1F1111" stroke-linecap="round" stroke-linejoin="round"/>
<path d="M91.577 40.3057C91.577 41.1294 89.7406 41.7972 87.4753 41.7972C85.21 41.7972 83.3735 41.1294 83.3735 40.3057" stroke="#1F1111" stroke-linecap="round" stroke-linejoin="round"/>
<path d="M91.577 97.7295C91.577 98.5533 89.7406 99.221 87.4753 99.221C85.21 99.221 83.3735 98.5533 83.3735 97.7295" stroke="#1F1111" stroke-linecap="round" stroke-linejoin="round"/>
<path d="M91.577 87.2881C91.577 88.1118 89.7406 88.7796 87.4753 88.7796C85.21 88.7796 83.3735 88.1118 83.3735 87.2881" stroke="#1F1111" stroke-linecap="round" stroke-linejoin="round"/>
<path d="M91.577 76.8477C91.577 77.6714 89.7406 78.3392 87.4753 78.3392C85.21 78.3392 83.3735 77.6714 83.3735 76.8477" stroke="#1F1111" stroke-linecap="round" stroke-linejoin="round"/>
<path d="M91.577 66.4072C91.577 67.231 89.7406 67.8988 87.4753 67.8988C85.21 67.8988 83.3735 67.231 83.3735 66.4072" stroke="#1F1111" stroke-linecap="round" stroke-linejoin="round"/>
<path d="M91.577 55.9668C91.577 56.7906 89.7406 57.4583 87.4753 57.4583C85.21 57.4583 83.3735 56.7906 83.3735 55.9668" stroke="#1F1111" stroke-linecap="round" stroke-linejoin="round"/>
<path d="M91.577 38.8135C91.577 39.6372 89.7406 40.305 87.4753 40.305C85.21 40.305 83.3735 39.6372 83.3735 38.8135" stroke="#1F1111" stroke-linecap="round" stroke-linejoin="round"/>
<path d="M91.577 96.2383C91.577 97.062 89.7406 97.7298 87.4753 97.7298C85.21 97.7298 83.3735 97.062 83.3735 96.2383" stroke="#1F1111" stroke-linecap="round" stroke-linejoin="round"/>
<path d="M91.577 85.7969C91.577 86.6206 89.7406 87.2884 87.4753 87.2884C85.21 87.2884 83.3735 86.6206 83.3735 85.7969" stroke="#1F1111" stroke-linecap="round" stroke-linejoin="round"/>
<path d="M91.577 75.3564C91.577 76.1802 89.7406 76.848 87.4753 76.848C85.21 76.848 83.3735 76.1802 83.3735 75.3564" stroke="#1F1111" stroke-linecap="round" stroke-linejoin="round"/>
<path d="M91.577 64.915C91.577 65.7388 89.7406 66.4066 87.4753 66.4066C85.21 66.4066 83.3735 65.7388 83.3735 64.915" stroke="#1F1111" stroke-linecap="round" stroke-linejoin="round"/>
<path d="M91.577 54.4746C91.577 55.2984 89.7406 55.9662 87.4753 55.9662C85.21 55.9662 83.3735 55.2984 83.3735 54.4746" stroke="#1F1111" stroke-linecap="round" stroke-linejoin="round"/>
<path d="M91.577 37.3213C91.577 38.145 89.7406 38.8128 87.4753 38.8128C85.21 38.8128 83.3735 38.145 83.3735 37.3213" stroke="#1F1111" stroke-linecap="round" stroke-linejoin="round"/>
<path d="M91.577 94.7461C91.577 95.5699 89.7406 96.2376 87.4753 96.2376C85.21 96.2376 83.3735 95.5699 83.3735 94.7461" stroke="#1F1111" stroke-linecap="round" stroke-linejoin="round"/>
<path d="M91.577 84.3057C91.577 85.1294 89.7406 85.7972 87.4753 85.7972C85.21 85.7972 83.3735 85.1294 83.3735 84.3057" stroke="#1F1111" stroke-linecap="round" stroke-linejoin="round"/>
<path d="M91.577 73.8643C91.577 74.688 89.7406 75.3558 87.4753 75.3558C85.21 75.3558 83.3735 74.688 83.3735 73.8643" stroke="#1F1111" stroke-linecap="round" stroke-linejoin="round"/>
<path d="M91.577 63.4238C91.577 64.2476 89.7406 64.9154 87.4753 64.9154C85.21 64.9154 83.3735 64.2476 83.3735 63.4238" stroke="#1F1111" stroke-linecap="round" stroke-linejoin="round"/>
<path d="M91.577 52.9834C91.577 53.8072 89.7406 54.4749 87.4753 54.4749C85.21 54.4749 83.3735 53.8072 83.3735 52.9834" stroke="#1F1111" stroke-linecap="round" stroke-linejoin="round"/>
<path d="M91.577 35.8301C91.577 36.6538 89.7406 37.3216 87.4753 37.3216C85.21 37.3216 83.3735 36.6538 83.3735 35.8301" stroke="#1F1111" stroke-linecap="round" stroke-linejoin="round"/>
<path d="M91.577 93.2549C91.577 94.0786 89.7406 94.7464 87.4753 94.7464C85.21 94.7464 83.3735 94.0786 83.3735 93.2549" stroke="#1F1111" stroke-linecap="round" stroke-linejoin="round"/>
<path d="M91.577 82.8145C91.577 83.6382 89.7406 84.306 87.4753 84.306C85.21 84.306 83.3735 83.6382 83.3735 82.8145" stroke="#1F1111" stroke-linecap="round" stroke-linejoin="round"/>
<path d="M91.577 72.373C91.577 73.1968 89.7406 73.8646 87.4753 73.8646C85.21 73.8646 83.3735 73.1968 83.3735 72.373" stroke="#1F1111" stroke-linecap="round" stroke-linejoin="round"/>
<path d="M91.577 61.9316C91.577 62.7554 89.7406 63.4232 87.4753 63.4232C85.21 63.4232 83.3735 62.7554 83.3735 61.9316" stroke="#1F1111" stroke-linecap="round" stroke-linejoin="round"/>
<path d="M91.577 51.4912C91.577 52.315 89.7406 52.9828 87.4753 52.9828C85.957 52.9828 84.6315 52.6828 83.9222 52.237" stroke="#1F1111" stroke-linecap="round" stroke-linejoin="round"/>
<path d="M91.577 34.3389C91.577 35.1626 89.7406 35.8304 87.4753 35.8304C85.21 35.8304 83.3735 35.1626 83.3735 34.3389" stroke="#1F1111" stroke-linecap="round" stroke-linejoin="round"/>
<path d="M91.577 91.7637C91.577 92.5874 89.7406 93.2552 87.4753 93.2552C85.21 93.2552 83.3735 92.5874 83.3735 91.7637" stroke="#1F1111" stroke-linecap="round" stroke-linejoin="round"/>
<path d="M91.577 81.3223C91.577 82.146 89.7406 82.8138 87.4753 82.8138C85.21 82.8138 83.3735 82.146 83.3735 81.3223" stroke="#1F1111" stroke-linecap="round" stroke-linejoin="round"/>
<path d="M91.577 70.8818C91.577 71.7056 89.7406 72.3734 87.4753 72.3734C85.21 72.3734 83.3735 71.7056 83.3735 70.8818" stroke="#1F1111" stroke-linecap="round" stroke-linejoin="round"/>
<path d="M91.577 60.4414C91.577 61.2652 89.7406 61.933 87.4753 61.933C85.21 61.933 83.3735 61.2652 83.3735 60.4414" stroke="#1F1111" stroke-linecap="round" stroke-linejoin="round"/>
<path d="M91.2041 50.373C90.8312 51.1188 88.5155 51.4917 87.4752 51.4917C86.435 51.4917 85.4852 51.3509 84.7621 51.1188" stroke="#1F1111" stroke-linecap="round" stroke-linejoin="round"/>
<path d="M91.577 32.8477C91.577 33.6714 89.7406 34.3392 87.4753 34.3392C85.21 34.3392 83.3735 33.6714 83.3735 32.8477" stroke="#1F1111" stroke-linecap="round" stroke-linejoin="round"/>
<path d="M91.577 90.2715C91.577 91.0952 89.7406 91.763 87.4753 91.763C85.21 91.763 83.3735 91.0952 83.3735 90.2715" stroke="#1F1111" stroke-linecap="round" stroke-linejoin="round"/>
<path d="M91.577 79.8311C91.577 80.6548 89.7406 81.3226 87.4753 81.3226C85.21 81.3226 83.3735 80.6548 83.3735 79.8311" stroke="#1F1111" stroke-linecap="round" stroke-linejoin="round"/>
<path d="M91.577 69.3906C91.577 70.2144 89.7406 70.8822 87.4753 70.8822C85.21 70.8822 83.3735 70.2144 83.3735 69.3906" stroke="#1F1111" stroke-linecap="round" stroke-linejoin="round"/>
<path d="M91.577 58.9492C91.577 59.773 89.7406 60.4408 87.4753 60.4408C85.21 60.4408 83.3735 59.773 83.3735 58.9492" stroke="#1F1111" stroke-linecap="round" stroke-linejoin="round"/>
<path d="M85.6108 49.8384C86.1702 49.9424 86.8039 50.001 87.4753 50.001C88.6506 50.001 89.7105 49.8213 90.4584 49.5332" stroke="#1F1111" stroke-linecap="round" stroke-linejoin="round"/>
<path d="M91.577 31.3555C91.577 32.1792 89.7406 32.847 87.4753 32.847C85.21 32.847 83.3735 32.1792 83.3735 31.3555" stroke="#1F1111" stroke-linecap="round" stroke-linejoin="round"/>
<path d="M91.577 29.8643C91.577 30.688 89.7406 31.3558 87.4753 31.3558C85.21 31.3558 83.3735 30.688 83.3735 29.8643" stroke="#1F1111" stroke-linecap="round" stroke-linejoin="round"/>
<ellipse cx="82.831" cy="47.8837" rx="1.73119" ry="2.07742" transform="rotate(14.7709 82.831 47.8837)" stroke="#1F1111" stroke-linecap="round" stroke-linejoin="round"/>
<ellipse cx="60.2209" cy="81.5357" rx="1.73119" ry="2.07742" transform="rotate(35.0372 60.2209 81.5357)" stroke="#1F1111" stroke-linecap="round" stroke-linejoin="round"/>
<ellipse cx="1.73119" cy="2.07742" rx="1.73119" ry="2.07742" transform="matrix(-0.818779 0.574108 0.574108 0.818779 118.968 74.8574)" stroke="#1F1111" stroke-linecap="round" stroke-linejoin="round"/>
<ellipse cx="1.73119" cy="2.07742" rx="1.73119" ry="2.07742" transform="matrix(-0.966953 0.254955 0.254955 0.966953 94.3824 44.6865)" stroke="#1F1111" stroke-linecap="round" stroke-linejoin="round"/>
<line x1="77.6531" y1="47.5166" x2="77.1615" y2="47.5166" stroke="#1F1111" stroke-linecap="round" stroke-linejoin="round"/>
<line x1="71.5161" y1="43.5117" x2="70.919" y2="43.2131" stroke="#1F1111" stroke-linecap="round" stroke-linejoin="round"/>
<path d="M57.3026 93.2942C56.2253 95.3228 54.0794 96.1041 52.5779 95.3068C51.0765 94.5095 50.5219 92.2941 51.5991 90.2655C52.6763 88.237 54.8223 87.4556 56.3237 88.2529C57.8252 89.0502 58.3798 91.2657 57.3026 93.2942Z" stroke="#1F1111" stroke-linecap="round" stroke-linejoin="round"/>
<path d="M123.849 88.0945C122.275 86.4221 122.225 84.1388 123.463 82.9736C124.701 81.8084 126.977 81.996 128.551 83.6684C130.126 85.3409 130.175 87.6241 128.937 88.7893C127.699 89.9545 125.423 89.767 123.849 88.0945Z" stroke="#1F1111" stroke-linecap="round" stroke-linejoin="round"/>
<path d="M124.659 87.5547C123.603 86.4327 123.603 84.9441 124.385 84.2089C125.166 83.4736 126.651 83.5635 127.708 84.6855C128.764 85.8076 128.764 87.2961 127.982 88.0314C127.201 88.7666 125.716 88.6768 124.659 87.5547Z" stroke="#1F1111" stroke-linecap="round" stroke-linejoin="round"/>
<path d="M57.5671 93.2372C56.2865 95.6487 53.5713 96.5956 51.5489 95.5216C49.5266 94.4477 48.7902 91.668 50.0708 89.2565C51.3513 86.845 54.0666 85.8982 56.0889 86.9721C58.1113 88.046 58.8476 90.8257 57.5671 93.2372Z" stroke="#1F1111" stroke-linecap="round" stroke-linejoin="round"/>
<path d="M123.818 88.3634C121.947 86.3753 121.924 83.4998 123.591 81.9303C125.258 80.3609 128.127 80.5578 129.999 82.546C131.87 84.5342 131.893 87.4097 130.226 88.9791C128.558 90.5486 125.69 90.3516 123.818 88.3634Z" stroke="#1F1111" stroke-linecap="round" stroke-linejoin="round"/>
<path d="M57.2741 75.3437C56.1237 75.8773 55.0817 76.8444 54.3905 78.1459C53.319 80.1637 53.6565 82.0001 54.6612 83.5596" stroke="#1F1111" stroke-linecap="round" stroke-linejoin="round"/>
<path d="M125.883 73.8654C125.137 72.0009 123.272 70.8354 121.408 70.8354" stroke="#1F1111" stroke-linecap="round" stroke-linejoin="round"/>
<line x1="43.494" y1="118.769" x2="49.9712" y2="117.474" stroke="#1F1111" stroke-linecap="round" stroke-linejoin="round"/>
<path d="M52.051 127.187L53.1697 126.814C53.6669 127.187 54.9595 128.082 56.1528 128.679C57.346 129.276 58.3901 129.922 58.763 130.17" stroke="#1F1111" stroke-linecap="round" stroke-linejoin="round"/>
<line x1="115.144" y1="53.1822" x2="121.606" y2="52.536" stroke="#1F1111" stroke-linecap="round" stroke-linejoin="round"/>
<line x1="115.144" y1="51.69" x2="121.606" y2="51.0438" stroke="#1F1111" stroke-linecap="round" stroke-linejoin="round"/>
<line x1="131.603" y1="111.399" x2="138.061" y2="111.399" stroke="#1F1111" stroke-linecap="round" stroke-linejoin="round"/>
<line x1="131.603" y1="109.162" x2="138.061" y2="109.162" stroke="#1F1111" stroke-linecap="round" stroke-linejoin="round"/>
<line x1="65.975" y1="96.2383" x2="65.975" y2="104.442" stroke="#1F1111"/>
<line x1="109.976" y1="97.7305" x2="109.976" y2="104.442" stroke="#1F1111"/>
<line x1="67.4664" y1="95.4932" x2="67.4664" y2="105.934" stroke="#1F1111"/>
<line x1="108.484" y1="96.2383" x2="108.484" y2="105.188" stroke="#1F1111"/>
<line x1="68.958" y1="94.001" x2="68.958" y2="105.933" stroke="#1F1111"/>
<line x1="63.7375" y1="120.104" x2="63.7375" y2="132.036" stroke="#1F1111"/>
<line x1="62.2461" y1="120.104" x2="62.2461" y2="132.036" stroke="#1F1111"/>
<line x1="60.7545" y1="119.357" x2="60.7545" y2="131.29" stroke="#1F1111"/>
<line x1="59.2629" y1="118.611" x2="59.2629" y2="130.544" stroke="#1F1111"/>
<line x1="57.7715" y1="117.866" x2="57.7715" y2="129.799" stroke="#1F1111"/>
<line x1="56.2799" y1="117.12" x2="56.2799" y2="129.052" stroke="#1F1111"/>
<line x1="54.7883" y1="116.374" x2="54.7883" y2="128.306" stroke="#1F1111"/>
<line x1="53.2968" y1="115.628" x2="53.2968" y2="127.56" stroke="#1F1111"/>
<line x1="51.8052" y1="114.137" x2="51.8052" y2="126.069" stroke="#1F1111"/>
<line y1="-0.5" x2="11.9324" y2="-0.5" transform="matrix(4.37114e-08 1 1 -4.37114e-08 107.238 94.7471)" stroke="#1F1111"/>
<line x1="70.4496" y1="93.2549" x2="70.4496" y2="105.187" stroke="#1F1111"/>
<line x1="65.975" y1="120.849" x2="65.975" y2="133.527" stroke="#1F1111"/>
<line y1="-0.5" x2="11.9324" y2="-0.5" transform="matrix(4.37114e-08 1 1 -4.37114e-08 105.747 94.001)" stroke="#1F1111"/>
<line x1="72.6869" y1="92.5098" x2="72.6869" y2="103.696" stroke="#1F1111"/>
<line x1="68.958" y1="121.595" x2="68.958" y2="134.273" stroke="#1F1111"/>
<line x1="102.518" y1="92.5098" x2="102.518" y2="103.696" stroke="#1F1111"/>
<line x1="76.4158" y1="91.7637" x2="76.4158" y2="102.204" stroke="#1F1111"/>
<line x1="73.4326" y1="122.341" x2="73.4326" y2="135.019" stroke="#1F1111"/>
<line x1="126.383" y1="108.917" x2="126.383" y2="120.104" stroke="#1F1111"/>
<line x1="124.891" y1="111.154" x2="124.891" y2="122.341" stroke="#1F1111"/>
<line x1="123.399" y1="112.646" x2="123.399" y2="124.578" stroke="#1F1111"/>
<line x1="121.908" y1="114.137" x2="121.908" y2="125.323" stroke="#1F1111"/>
<line x1="118.925" y1="116.374" x2="118.925" y2="127.561" stroke="#1F1111"/>
<line x1="98.7889" y1="91.7637" x2="98.7889" y2="102.204" stroke="#1F1111"/>
<line x1="80.8904" y1="91.0176" x2="80.8904" y2="101.458" stroke="#1F1111"/>
<line x1="88.3481" y1="123.832" x2="88.3481" y2="136.51" stroke="#1F1111"/>
<line x1="94.3143" y1="91.0176" x2="94.3143" y2="101.458" stroke="#1F1111"/>
</g>
</svg>
